<?xml version="1.0" ?>
<!-- Uploaded to: SVG Repo, www.svgrepo.com, Generator: SVG Repo Mixer Tools -->
<svg fill="#000000" width="800px" height="800px" viewBox="0 0 96 96" xmlns="http://www.w3.org/2000/svg">
<title/>
<g data-name="Terms and Condition" id="Terms_and_Condition">
<path d="M68.5,16h-33A8.51,8.51,0,0,0,27,24.5V62H24.5a8.5,8.5,0,0,0,0,17h36A8.51,8.51,0,0,0,69,70.5v-54A.5.5,0,0,0,68.5,16ZM28,24.5A7.5,7.5,0,0,1,35.5,17H68V62H28ZM24.5,78a7.5,7.5,0,0,1,0-15h32a8.49,8.49,0,0,0,0,15ZM68,70.5A7.5,7.5,0,1,1,60.5,63H68Z"/>
<path d="M56,32a.51.51,0,0,0-.39-.49l-7.5-1.76a.41.41,0,0,0-.22,0l-7.5,1.76A.51.51,0,0,0,40,32v8a9.32,9.32,0,0,0,4.77,8.14l3,1.89a.5.5,0,0,0,.51,0l3.35-1.82,0,0A9.27,9.27,0,0,0,56,40.35Zm-1,8.35a8.29,8.29,0,0,1-3.9,7L48,49.07l-2.74-1.75A8.34,8.34,0,0,1,41,40V32.4l7-1.65,7,1.65Z"/>
<path d="M34.5,25h27a.5.5,0,0,0,0-1h-27a.5.5,0,0,0,0,1Z"/>
<path d="M62,54.5a.5.5,0,0,0-.5-.5h-27a.5.5,0,0,0,0,1h27A.5.5,0,0,0,62,54.5Z"/>
<path d="M61.5,30h-4a.5.5,0,0,0,0,1h4a.5.5,0,0,0,0-1Z"/>
<path d="M61.5,36h-3a.5.5,0,0,0,0,1h3a.5.5,0,0,0,0-1Z"/>
<path d="M61.5,42h-3a.5.5,0,0,0,0,1h3a.5.5,0,0,0,0-1Z"/>
<path d="M54.5,49h7a.5.5,0,0,0,0-1h-7a.5.5,0,0,0,0,1Z"/>
<path d="M34.5,31h4a.5.5,0,0,0,0-1h-4a.5.5,0,0,0,0,1Z"/>
<path d="M34.5,37h3a.5.5,0,0,0,0-1h-3a.5.5,0,0,0,0,1Z"/>
<path d="M34.5,43h3a.5.5,0,0,0,0-1h-3a.5.5,0,0,0,0,1Z"/>
<path d="M34.5,49h7a.5.5,0,0,0,0-1h-7a.5.5,0,0,0,0,1Z"/>
<path d="M44.4,38.29a.51.51,0,0,0-.7-.1.5.5,0,0,0-.1.7L46,42.07h0s0,0,0,0l.1.08s0,0,.06,0a.42.42,0,0,0,.22.05.46.46,0,0,0,.27-.09h.05l5.57-4.77a.5.5,0,1,0-.65-.76l-5.16,4.43Z"/>
</g>
</svg>