<?xml version="1.0" encoding="iso-8859-1"?>
<!-- Uploaded to: SVG Repo, www.svgrepo.com, Generator: SVG Repo Mixer Tools -->
<!DOCTYPE svg PUBLIC "-//W3C//DTD SVG 1.1//EN" "http://www.w3.org/Graphics/SVG/1.1/DTD/svg11.dtd">
<svg fill="#000000" version="1.1" id="Capa_1" xmlns="http://www.w3.org/2000/svg" xmlns:xlink="http://www.w3.org/1999/xlink" 
	 width="800px" height="800px" viewBox="0 0 45.204 45.204"
	 xml:space="preserve">
<g>
	<g>
		<path d="M29.67,28.924c-0.734,0.348-1.554,0.532-2.367,0.532c-0.916,0-1.826-0.229-2.633-0.667
			c-1.545-0.836-2.609-2.374-2.847-4.111c-0.076-0.556-0.147-1.098-0.214-1.631c-0.513,0.666-0.773,1.405-0.542,2.135
			c0.567,1.789,2.017,5.19,0,5.929c-2.019,0.737-3.797,1.427-2.787,2.788c1.231,1.662,2.819,1.027,4.231,2.052
			c0.924,0.672,0.19,2.216,0.518,3.202c-1.605,0.729-3.388,1.133-5.263,1.133c-3.659,0-6.964-1.544-9.297-4.016
			c-0.08-1.241,2.61-1.319,2.503-2.498c-0.058-0.639,0.514-2.307,3.718-2.661c3.207-0.353,2.242-3.455,1.796-4.519
			c-0.753-1.795-3.847-2.309-6.131-1.412c-2.286,0.897-0.664-2.436,1.243-6.024c0.875-1.648,0.328-2.323-0.52-2.572
			c1.832-1.128,3.968-1.806,6.253-1.883c0.081,0.334,0.257,0.745,0.564,1.25c1.105,1.491-2.18,3.116-1.666,3.609
			c0.512,0.493,2.673,0.172,3.46-0.661c0.389-0.41,0.918-0.739,1.407-0.962c-0.223-3.042-0.243-5.666-0.061-7.861
			c-1.061-0.198-2.152-0.304-3.271-0.304c-9.769,0-17.715,7.947-17.715,17.717c0,9.77,7.946,17.716,17.715,17.716
			c9.77,0,17.716-7.946,17.716-17.716c0-0.5-0.021-0.995-0.062-1.484C33.692,26.953,31.776,27.928,29.67,28.924z"/>
		<path d="M39.553,1.291C37.936,0.416,36.194,0,34.475,0c-3.795,0-7.473,2.028-9.406,5.601c-2.014,3.723-1.035,13.463-0.319,18.672
			c0.11,0.814,0.604,1.527,1.327,1.918c0.382,0.207,0.805,0.311,1.229,0.311c0.377,0,0.752-0.082,1.104-0.248
			c4.753-2.25,13.443-6.758,15.458-10.481C46.672,10.584,44.745,4.1,39.553,1.291z M38.475,12.619
			c-1.166,2.158-3.865,2.961-6.022,1.793c-2.16-1.168-2.961-3.865-1.794-6.024c1.169-2.159,3.865-2.961,6.023-1.793
			C38.84,7.764,39.645,10.461,38.475,12.619z"/>
	</g>
</g>
</svg>