<?xml version="1.0" encoding="iso-8859-1"?>
<!-- Uploaded to: SVG Repo, www.svgrepo.com, Generator: SVG Repo Mixer Tools -->
<svg fill="#000000" version="1.1" id="Layer_1" xmlns="http://www.w3.org/2000/svg" xmlns:xlink="http://www.w3.org/1999/xlink" 
	 viewBox="0 0 496 496" xml:space="preserve">
<g>
	<g>
		<g>
			<path d="M456,232c0-22.056-17.944-40-40-40H295.08l108.16-37.856C413.096,162.744,425.928,168,440,168c30.872,0,56-25.128,56-56
				s-25.128-56-56-56s-56,25.128-56,56c0,10.64,3.04,20.56,8.216,29.048l-124.304,43.504l48.52-72.776
				C345.24,109.504,368,85.376,368,56c0-30.872-25.128-56-56-56s-56,25.128-56,56c0,26.12,18.008,48.056,42.24,54.216L248,185.576
				l-50.24-75.36C221.992,104.064,240,82.12,240,56c0-30.872-25.128-56-56-56s-56,25.128-56,56c0,29.376,22.76,53.504,51.568,55.776
				l48.52,72.776l-124.304-43.504C108.96,132.56,112,122.64,112,112c0-30.872-25.128-56-56-56S0,81.128,0,112s25.128,56,56,56
				c14.072,0,26.904-5.256,36.752-13.856L200.92,192H80c-22.056,0-40,17.944-40,40v200H0v24c0,22.056,17.944,40,40,40h416
				c22.056,0,40-17.944,40-40v-24h-40V232z M440,72c22.056,0,40,17.944,40,40c0,22.056-17.944,40-40,40c-22.056,0-40-17.944-40-40
				C400,89.944,417.944,72,440,72z M272,56c0-22.056,17.944-40,40-40c22.056,0,40,17.944,40,40c0,13.016-6.344,24.488-16,31.792V72
				h-16V56h16V40h-16V24h-16v16h-16v16h16v32h31.752c-6.664,4.96-14.832,8-23.752,8C289.944,96,272,78.056,272,56z M144,56
				c0-22.056,17.944-40,40-40c22.056,0,40,17.944,40,40c0,22.056-17.944,40-40,40C161.944,96,144,78.056,144,56z M56,152
				c-22.056,0-40-17.944-40-40c0-22.056,17.944-40,40-40c8.928,0,17.088,3.04,23.752,8H48v32H32v16h16v16h16v-16h16v-16H64V96h16
				V80.208C89.656,87.52,96,98.992,96,112C96,134.056,78.056,152,56,152z M56,232c0-13.232,10.768-24,24-24h336
				c13.232,0,24,10.768,24,24v200h-16V224H72v208H56V232z M88,432V240h320v192H88z M280,448v8h-64v-8H280z M480,448v8
				c0,13.232-10.768,24-24,24H40c-13.232,0-24-10.768-24-24v-8h184v24h96v-24H480z"/>
			<path d="M301.664,289.448l-17.408-34.824L248,264.048l-36.256-9.424l-17.408,34.824l-28.28,9.304l9.68,37.248l-9.68,37.248
				l28.28,9.304l17.408,34.824L248,407.952l36.256,9.424l17.408-34.824l28.28-9.304L320.264,336l9.68-37.248L301.664,289.448z
				 M310.68,362.752l-20.344,6.696l-14.592,29.176l-27.744-7.2l-27.744,7.2l-14.592-29.176l-20.344-6.696L192.264,336l-6.944-26.752
				l20.344-6.696l14.592-29.176l27.744,7.2l27.744-7.2l14.592,29.176l20.344,6.696L303.736,336L310.68,362.752z"/>
			
				<rect x="239.983" y="296.004" transform="matrix(-0.5998 -0.8001 0.8001 -0.5998 127.8747 735.9599)" width="15.991" height="79.997"/>
			<circle cx="224" cy="312" r="8"/>
			<circle cx="272" cy="360" r="8"/>
			<path d="M188,24h-8c-11.032,0-20,8.968-20,20s8.968,20,20,20h8c2.2,0,4,1.8,4,4s-1.8,4-4,4h-8c-2.2,0-4-1.8-4-4v-4h-16v4
				c0,11.032,8.968,20,20,20h8c11.032,0,20-8.968,20-20s-8.968-20-20-20h-8c-2.2,0-4-1.8-4-4s1.8-4,4-4h8c2.2,0,4,1.8,4,4v4h16v-4
				C208,32.968,199.032,24,188,24z"/>
			<path d="M440,128h8c13.232,0,24-10.768,24-24s-10.768-24-24-24h-24v64h16V128z M440,96h8c4.416,0,8,3.584,8,8s-3.584,8-8,8h-8V96
				z"/>
		</g>
	</g>
</g>
</svg>